<svg width="36" height="36" viewBox="0 0 36 36" fill="none" xmlns="http://www.w3.org/2000/svg">
<g id="image2vector (1) 1">
<g id="svgg">
<path id="path0" fill-rule="evenodd" clip-rule="evenodd" d="M3.46892 4.09425C2.85998 4.39108 2.83844 5.39035 3.4339 5.71973C3.55541 5.78691 4.50874 6.17293 5.55233 6.57753C6.59599 6.98212 7.46804 7.33079 7.4903 7.35237C7.51256 7.37388 8.5779 10.3781 9.85785 14.0284C11.1377 17.6787 12.2129 20.7435 12.2471 20.8391C12.3051 21.0009 12.2954 21.0259 12.1045 21.2032C11.8837 21.4082 10.4236 25.2528 10.4236 25.6291C10.4236 26.143 10.7573 26.4069 11.4074 26.4069C11.6451 26.4069 11.8396 26.4169 11.8396 26.4292C11.8396 26.4416 11.7509 26.5819 11.6426 26.741C10.4267 28.5279 11.8094 31 14.0247 31C16.2691 31 17.5964 28.5293 16.3421 26.6861L16.1521 26.4069H19.1289H22.1056L22.0138 26.5329C20.6361 28.424 21.915 30.9951 24.2355 30.9992C26.5438 31.0032 27.9026 28.3836 26.5231 26.5889L26.3832 26.4069L26.9138 26.4066C27.8251 26.4063 28.2734 25.843 27.8758 25.198C27.639 24.814 28.1822 24.8385 19.8884 24.8385C15.7731 24.8385 12.4061 24.8169 12.4061 24.7907C12.406 24.752 12.6538 24.0578 13.1488 22.7099L13.2002 22.5698L20.1524 22.5864C27.7406 22.6045 27.5019 22.6115 27.7889 22.3624C28.0645 22.123 27.8965 22.5985 30.0526 15.9535C32.205 9.3197 32.1485 9.53494 31.8467 9.11565C31.5475 8.70016 32.5491 8.73429 20.6697 8.73429H10.0434L9.88547 8.28617C9.17691 6.27611 9.10477 6.09378 8.95962 5.94737C8.84753 5.83437 8.18936 5.55346 6.49869 4.89713C4.03451 3.94046 3.87261 3.89751 3.46892 4.09425ZM16.3143 11.6191V12.6273H13.8576H11.4009L11.0848 11.7145C10.9109 11.2125 10.7521 10.7588 10.7317 10.7063C10.6971 10.6171 10.8806 10.6108 13.5045 10.6108H16.3143V11.6191ZM22.4883 11.6191V12.6273H20.3642H18.2401V11.6191V10.6108H20.3642H22.4883V11.6191ZM29.7385 10.644C29.7385 10.6623 29.5964 11.116 29.4229 11.6523L29.1073 12.6273H26.7607H24.4142V11.6191V10.6108H27.0763C28.5405 10.6108 29.7385 10.6258 29.7385 10.644ZM16.3143 15.7081V16.8844H14.6137H12.913L12.8527 16.7304C12.8195 16.6456 12.6313 16.1163 12.4342 15.5541L12.076 14.5318H14.1952H16.3143V15.7081ZM22.4883 15.7081V16.8844H20.3642H18.2401V15.7081V14.5318H20.3642H22.4883V15.7081ZM28.4123 14.7699C28.3713 14.9008 28.2011 15.4301 28.034 15.9461L27.7302 16.8844H26.0721H24.4142V15.7081V14.5318H26.4505H28.487L28.4123 14.7699ZM16.3143 19.7131V20.6934H15.271H14.2278L14.1019 20.3153C14.0326 20.1073 13.8784 19.6662 13.7591 19.335L13.5422 18.7329H14.9283H16.3143V19.7131ZM22.4883 19.7131V20.6934H20.3642H18.2401V19.7131V18.7329H20.3642H22.4883V19.7131ZM26.9955 19.139C26.9247 19.3623 26.7831 19.8034 26.6808 20.1192L26.4948 20.6934H25.4544H24.4142V19.7131V18.7329H25.7692H27.1242L26.9955 19.139ZM14.5581 27.1909C15.482 27.657 15.391 28.9826 14.4098 29.3532C13.5093 29.6934 12.5371 28.7348 12.8805 27.8455C13.1423 27.1676 13.9146 26.8662 14.5581 27.1909ZM24.8364 27.2107C25.5274 27.582 25.6408 28.5582 25.0565 29.1066C24.2668 29.8477 22.9738 29.214 23.0654 28.1307C23.138 27.2726 24.0601 26.7935 24.8364 27.2107Z" fill="#ffff" style="fill:#ffff;fill:color(display-p3 0.5882 0.7882 0.2392);fill-opacity:1;"/>
</g>
</g>
</svg>
